<?xml version="1.0" standalone="no"?><!DOCTYPE svg PUBLIC "-//W3C//DTD SVG 1.1//EN" "http://www.w3.org/Graphics/SVG/1.1/DTD/svg11.dtd"><svg t="1535887525582" class="icon" style="" viewBox="0 0 1024 1024" version="1.1" xmlns="http://www.w3.org/2000/svg" p-id="15192" xmlns:xlink="http://www.w3.org/1999/xlink" width="60" height="60"><defs><style type="text/css"></style></defs><path d="M588.8 412.16H429.568L417.792 409.6a75.776 75.776 0 0 0-18.432 51.2v96.256a18.432 18.432 0 0 0 5.632 11.776 11.776 11.776 0 0 0 10.752 3.072h3.584a75.776 75.776 0 0 0 14.336-45.056v-28.16a130.56 130.56 0 0 1 5.12-40.448c2.56-5.632 12.288 24.576 12.288 41.472v211.968a18.432 18.432 0 0 0 5.632 12.8l3.072 3.072h34.304a124.928 124.928 0 0 0 8.704-47.616v-102.4a8.704 8.704 0 0 1 9.728-8.192h3.584a122.368 122.368 0 0 1 4.096 38.4v112.64c0 4.096 21.504 7.168 26.112 7.168H563.2c4.608 0 8.704-27.648 8.704-44.544V498.176a194.048 194.048 0 0 1 3.584-37.376c0-5.12 14.336 22.528 14.336 39.424v26.112a229.376 229.376 0 0 1-3.584 46.08h38.4V432.128L614.4 419.84l-25.6-10.24M512 301.568l-28.16 11.776a39.424 39.424 0 0 0-23.04 35.84 51.2 51.2 0 0 0 51.2 47.616 51.2 51.2 0 0 0 51.2-47.616 40.448 40.448 0 0 0-24.064-35.84z" p-id="15193" fill="#ff9966"></path><path d="M849.92 66.56l125.44 0 0 890.88-125.44 0 0-890.88Z" p-id="15194" fill="#ff9966"></path><path d="M239.616 757.76a30.72 30.72 0 0 0 30.72 30.72h483.328a30.72 30.72 0 0 0 30.72-30.72V266.24a30.72 30.72 0 0 0-30.72-30.72H270.336a30.72 30.72 0 0 0-30.72 30.72z m41.984-460.8a30.72 30.72 0 0 1 30.72-30.72h399.36a30.72 30.72 0 0 1 30.72 30.72v430.08a30.72 30.72 0 0 1-30.72 30.72H312.32a30.72 30.72 0 0 1-30.72-30.72zM787.456 236.032z" p-id="15195" fill="#ff9966"></path><path d="M614.4 102.4l-27.136-13.824-51.2-25.6a68.096 68.096 0 0 0-54.784 0l-51.2 25.6c-14.848 7.68-27.136 20.992-27.136 29.184s12.288 8.704 27.136 0l29.184-14.848a17.408 17.408 0 0 1 27.136 16.896v51.2c0 16.896 9.216 30.72 20.992 30.72s20.992-13.824 20.992-30.72v-51.2a17.408 17.408 0 0 1 27.136-16.896l29.184 14.848c14.848 7.68 27.136 7.168 27.136 0S614.4 102.4 614.4 102.4zM179.712 66.56H84.992a30.72 30.72 0 0 0-30.72 30.72v829.44a30.72 30.72 0 0 0 30.72 30.72h64a30.72 30.72 0 0 0 30.72-30.72V97.28v-30.72zM409.6 921.6l27.136 13.824 51.2 25.6a68.096 68.096 0 0 0 54.784 0l51.2-25.6c14.848-7.68 27.136-20.48 27.136-29.184s-12.288-8.704-27.136 0l-29.184 14.848a17.408 17.408 0 0 1-27.136-16.896v-51.2c0-16.896-9.216-30.72-20.992-30.72s-20.992 13.824-20.992 30.72v51.2a17.408 17.408 0 0 1-27.136 16.896l-29.184-14.848c-14.848-7.68-27.136-7.168-27.136 0z" p-id="15196" fill="#ff9966"></path></svg>